<svg viewBox="0 0 1024 1024" xmlns="http://www.w3.org/2000/svg" width="256" height="256"><path d="M659.498667 412.8l-6.101334-6.058667a233.6 233.6 0 0 0-101.973333-57.557333c-124.032-33.237333-243.157333 37.077333-276.992 163.413333-1.834667 6.826667-2.816 14.506667-4.437333 33.749334-6.570667 79.786667-25.344 139.306667-76.8 199.68 96.426667 37.888 210.688 64.597333 297.557333 64.597333a234.88 234.88 0 0 0 226.56-174.037333 234.538667 234.538667 0 0 0-57.856-223.786667z m-92.501334-147.712l210.730667-163.925333a42.666667 42.666667 0 0 1 56.32 3.541333l127.786667 127.744a42.666667 42.666667 0 0 1 3.498666 56.32l-163.84 210.730667a320.213333 320.213333 0 0 1-310.741333 396.458666C341.333333 895.957333 149.333333 831.872 42.666667 767.872c169.813333-128 130.005333-205.226667 149.333333-277.333333 45.141333-168.533333 206.592-267.008 374.997333-225.450667zM712.533333 345.258667c2.816 2.688 5.546667 5.461333 8.277334 8.234666L769.28 401.92l105.6-135.765333-74.496-74.496-135.765333 105.6L712.533333 345.258667z" fill="#ffffff"/></svg>
